<?xml version="1.0" encoding="utf-8"?>
<!-- Generator: Adobe Illustrator 23.0.6, SVG Export Plug-In . SVG Version: 6.00 Build 0)  -->
<svg version="1.1" id="Layer_1" xmlns="http://www.w3.org/2000/svg" xmlns:xlink="http://www.w3.org/1999/xlink" x="0px" y="0px"
	 viewBox="0 0 284.5 288" style="enable-background:new 0 0 284.5 288;" xml:space="preserve">
<style type="text/css">
	.st0{fill:#231F20;stroke:#FFFFFF;stroke-width:5;stroke-miterlimit:10;}
	.st1{fill:#FFFFFF;}
</style>
<g>
	<ellipse class="st0" cx="142.3" cy="144.5" rx="141.6" ry="142"/>
	<g>
		<path class="st1" d="M120.2,203.1l-10.9,0c-0.2,0-0.3-0.2-0.3-0.4l23.9-81.4c1.6-5.4,7.5-9.8,13.1-9.8l10.9,0
			c0.2,0,0.3,0.2,0.3,0.4l-23.9,81.4C131.6,199.2,126.2,203.2,120.2,203.1z"/>
		<path class="st1" d="M168.6,148.7l-11.3,0l24.1-81.8c1.6-5.4,7.5-9.8,13.1-9.8l11.3,0l-24,81.8C180,144.7,174.7,148.7,168.6,148.7
			z"/>
		<path class="st1" d="M147.6,177.4l3.2-11.1c1.6-5.4,7.5-9.8,13.1-9.8l66.5,0.1l-3.5,11.3c-1.6,5.3-7.5,9.6-13.1,9.6L147.6,177.4z"
			/>
		<path class="st1" d="M53.8,203.3l3.2-11.1c1.6-5.4,7.5-9.8,13.1-9.8l35.6,0.1l-3.5,11.3c-1.6,5.3-7.5,9.6-13.1,9.6L53.8,203.3z"/>
	</g>
</g>
</svg>
