<svg width="285" height="288" viewBox="0 0 285 288" fill="none" xmlns="http://www.w3.org/2000/svg">
<path d="M120.2 203.1H109.3C109.1 203.1 109 202.9 109 202.7L132.9 121.3C134.5 115.9 140.4 111.5 146 111.5H156.9C157.1 111.5 157.2 111.7 157.2 111.9L133.3 193.3C131.6 199.2 126.2 203.2 120.2 203.1Z" fill="white"/>
<path d="M168.6 148.7H157.3L181.4 66.9C183 61.5 188.9 57.1 194.5 57.1H205.8L181.8 138.9C180 144.7 174.7 148.7 168.6 148.7Z" fill="white"/>
<path d="M147.6 177.4L150.8 166.3C152.4 160.9 158.3 156.5 163.9 156.5L230.4 156.6L226.9 167.9C225.3 173.2 219.4 177.5 213.8 177.5L147.6 177.4Z" fill="white"/>
<path d="M53.8 203.3L57 192.2C58.6 186.8 64.5 182.4 70.1 182.4L105.7 182.5L102.2 193.8C100.6 199.1 94.7 203.4 89.1 203.4L53.8 203.3Z" fill="white"/>
</svg>
